<?xml version="1.0" encoding="utf-8"?>
<!-- Generator: Adobe Illustrator 26.0.3, SVG Export Plug-In . SVG Version: 6.00 Build 0)  -->
<svg version="1.1" id="Слой_1" xmlns="http://www.w3.org/2000/svg" xmlns:xlink="http://www.w3.org/1999/xlink" x="0px" y="0px"
	 viewBox="0 0 1920 1080" style="enable-background:new 0 0 1920 1080;" xml:space="preserve">
<style type="text/css">
	.st0{fill:#FFFFFF;}
</style>
<g>
	<g>
		<path class="st0" d="M1017.5,602.68c-38.33,0-76.67,0-115,0c0-44.33,0-88.67,0-133c38.33,0,76.67,0,115,0
			C1017.5,514.01,1017.5,558.35,1017.5,602.68z M1016.46,601.61c0-43.6,0-86.7,0-130.11c-37.35,0-74.43,0-111.81,0
			c0,43.42,0,86.64,0,130.05c32.09,0,63.89,0,96.2,0c0-11.29,0.2-22.33-0.13-33.35c-0.09-3.12-1.75-6.18-2.85-9.77
			c3.62-3.89,4.62-16.83,0.79-21.53c-1.11-1.37-3.3-2.72-4.93-2.65c-5.83,0.28-11.64,1.17-17.34,1.82c0,17.67,0,34.44,0,51.19
			c3.95,0,7.45,0,11.51,0c0-7.95,0-15.42,0-23.49c2.9,3.22,3.75,21.57,1.88,28.5c-25.37,0-50.71,0-75.89,0c0-37.67,0-74.94,0-112.09
			c31.41,0,62.39,0,93.87,0c0,40.66,0,80.94,0,121.43C1010.87,601.61,1013.45,601.61,1016.46,601.61z M958,587.38
			c0.3-1.86,0.33-3.4,0.85-4.74c0.44-1.14,1.44-2.06,2.19-3.08c0.6,1.14,1.4,2.23,1.76,3.45c0.4,1.35,0.41,2.82,0.62,4.4
			c3.74,0,7.12,0,11.14,0c-2.05-16.62-4.06-32.88-6.14-49.71c-4.76,0.7-9.02,1.05-13.11,2.07c-1.36,0.34-3.07,2.29-3.29,3.71
			c-1.21,7.65-2.04,15.36-2.92,23.05c-0.79,6.83-1.48,13.67-2.25,20.86C950.79,587.38,954.18,587.38,958,587.38z M919.67,544.93
			c0,13.79-0.06,26.82,0.13,39.84c0.01,0.98,1.86,2.73,2.89,2.76c5.43,0.13,10.89,0.07,16.28-0.47c1.84-0.18,4.17-1.54,5.16-3.08
			c3.22-5.04,0.97-17.47-3.69-21.56c5.33-3,4.15-8.03,3.88-12.71c-0.27-4.51-2.71-7.12-7.36-6.75
			C931.4,543.41,925.87,544.21,919.67,544.93z M920.68,485.68c0,18.53,0,36.53,0,54.82c2.25-0.28,4.04-0.71,5.82-0.68
			c4.98,0.07,6.29-2.39,5.91-7.07c-0.43-5.33-0.1-10.72-0.1-15.96c7.99-0.92,8.53-1.91,6.51-10.98c-1.99,0-4.04,0-6.28,0
			c0-3.16,0-6.07,0-9.19c2.58-0.39,4.98-0.76,7.49-1.14c0-3.32,0-6.48,0-9.78C933.4,485.68,927.19,485.68,920.68,485.68z
			 M982.59,530.33c12,0.08,12.01,0.08,12.04-11.04c0.02-8.53,0-17.06,0-25.44c2.65-0.49,4.58-0.84,6.57-1.21c0-2.42,0-4.6,0-6.77
			c-8.71,0-17.03,0-25.28,0c0,2.93,0,5.49,0,8.33c2.3,0,4.22,0,6.67,0C982.59,506.43,982.59,518.39,982.59,530.33z M953.54,536.42
			c4.74-0.84,9.38-1.67,13.86-2.47c1.41-5.45,2.74-10.55,4.25-16.36c-7.3,1.15-13.27,2.1-19.24,3.04c-3.24,0.51-3.97,1.96-2.54,5.08
			C951.34,528.92,952.2,532.42,953.54,536.42z M957.54,518.22c1.98,0,3.53,0,5.61,0c0-5.77,0-11.29,0-17.29
			c2.3,0,4.14,0.27,5.84-0.11c0.9-0.2,1.92-1.45,2.16-2.4c0.14-0.55-1.16-2.09-1.84-2.11c-5.91-0.17-11.84-0.19-17.75,0.01
			c-0.76,0.03-1.84,1.52-2.04,2.48c-0.11,0.55,1.16,1.84,1.99,2.03c1.83,0.42,3.77,0.34,6.04,0.5
			C957.54,507.22,957.54,512.61,957.54,518.22z M967.45,485.73c-4.73,0-9.46,0-14.22,0c-0.85,3.31-1.64,6.4-2.49,9.7
			c6.91,0,12.91,0,19.49,0C969.26,492.03,968.44,489.18,967.45,485.73z"/>
		<path d="M1016.46,601.61c-3.01,0-5.59,0-8.69,0c0-40.49,0-80.77,0-121.43c-31.48,0-62.46,0-93.87,0c0,37.14,0,74.41,0,112.09
			c25.18,0,50.52,0,75.89,0c1.87-6.93,1.02-25.27-1.88-28.5c0,8.07,0,15.55,0,23.49c-4.05,0-7.56,0-11.51,0c0-16.74,0-33.52,0-51.19
			c5.7-0.65,11.5-1.54,17.34-1.82c1.63-0.08,3.81,1.28,4.93,2.65c3.83,4.7,2.83,17.64-0.79,21.53c1.09,3.59,2.75,6.65,2.85,9.77
			c0.33,11.02,0.13,22.06,0.13,33.35c-32.31,0-64.11,0-96.2,0c0-43.41,0-86.64,0-130.05c37.38,0,74.46,0,111.81,0
			C1016.46,514.92,1016.46,558.01,1016.46,601.61z M989.56,544.34c-0.43,0.01-0.86,0.03-1.29,0.04c0,3.4,0,6.79,0,10.19
			C991.01,551.09,990.96,547.7,989.56,544.34z"/>
		<path d="M958,587.38c-3.82,0-7.22,0-11.16,0c0.77-7.19,1.46-14.03,2.25-20.86c0.89-7.7,1.72-15.41,2.92-23.05
			c0.22-1.42,1.93-3.37,3.29-3.71c4.09-1.02,8.35-1.37,13.11-2.07c2.08,16.83,4.08,33.09,6.14,49.71c-4.02,0-7.39,0-11.14,0
			c-0.2-1.58-0.21-3.05-0.62-4.4c-0.36-1.22-1.16-2.3-1.76-3.45c-0.75,1.02-1.75,1.94-2.19,3.08
			C958.33,583.98,958.31,585.51,958,587.38z M960.22,554.9c-0.42,5.03-0.84,10.06-1.29,15.45
			C962.57,568.67,962.61,568.16,960.22,554.9z"/>
		<path d="M919.67,544.93c6.2-0.72,11.72-1.52,17.28-1.97c4.66-0.38,7.1,2.24,7.36,6.75c0.28,4.68,1.45,9.71-3.88,12.71
			c4.67,4.09,6.92,16.52,3.69,21.56c-0.98,1.54-3.32,2.89-5.16,3.08c-5.4,0.54-10.86,0.6-16.28,0.47c-1.03-0.02-2.87-1.78-2.89-2.76
			C919.61,571.75,919.67,558.73,919.67,544.93z M931.22,567.98c0,4.35,0,8.41,0,13.11C935.1,576.98,934.99,570.63,931.22,567.98z
			 M931.29,560.32c3.89-4.02,3.76-7.86,0-10.1C931.29,553.47,931.29,556.5,931.29,560.32z"/>
		<path d="M920.68,485.68c6.52,0,12.73,0,19.36,0c0,3.3,0,6.47,0,9.78c-2.52,0.38-4.91,0.75-7.49,1.14c0,3.12,0,6.03,0,9.19
			c2.24,0,4.29,0,6.28,0c2.02,9.07,1.49,10.06-6.51,10.98c0,5.24-0.33,10.63,0.1,15.96c0.38,4.69-0.93,7.14-5.91,7.07
			c-1.78-0.02-3.57,0.4-5.82,0.68C920.68,522.22,920.68,504.22,920.68,485.68z"/>
		<path d="M982.59,530.33c0-11.94,0-23.9,0-36.13c-2.45,0-4.36,0-6.67,0c0-2.84,0-5.4,0-8.33c8.25,0,16.57,0,25.28,0
			c0,2.18,0,4.36,0,6.77c-1.99,0.37-3.91,0.72-6.57,1.21c0,8.38,0.02,16.91,0,25.44C994.6,530.41,994.59,530.41,982.59,530.33z"/>
		<path d="M953.54,536.42c-1.34-4-2.2-7.49-3.67-10.7c-1.43-3.12-0.7-4.57,2.54-5.08c5.97-0.94,11.94-1.89,19.24-3.04
			c-1.51,5.81-2.83,10.91-4.25,16.36C962.93,534.75,958.29,535.57,953.54,536.42z"/>
		<path d="M957.54,518.22c0-5.61,0-10.99,0-16.89c-2.28-0.15-4.22-0.08-6.04-0.5c-0.83-0.19-2.1-1.49-1.99-2.03
			c0.2-0.97,1.29-2.46,2.04-2.48c5.91-0.2,11.83-0.18,17.75-0.01c0.68,0.02,1.98,1.56,1.84,2.11c-0.24,0.96-1.26,2.2-2.16,2.4
			c-1.69,0.38-3.54,0.11-5.84,0.11c0,6,0,11.52,0,17.29C961.07,518.22,959.52,518.22,957.54,518.22z"/>
		<path d="M967.45,485.73c0.99,3.45,1.81,6.3,2.78,9.7c-6.59,0-12.59,0-19.49,0c0.85-3.3,1.64-6.38,2.49-9.7
			C957.99,485.73,962.71,485.73,967.45,485.73z"/>
		<path class="st0" d="M989.56,544.34c1.4,3.36,1.45,6.76-1.29,10.23c0-3.4,0-6.79,0-10.19
			C988.7,544.37,989.13,544.35,989.56,544.34z"/>
		<path class="st0" d="M960.22,554.9c2.39,13.27,2.35,13.77-1.29,15.45C959.38,564.95,959.8,559.93,960.22,554.9z"/>
		<path class="st0" d="M931.22,567.98c3.77,2.65,3.88,8.99,0,13.11C931.22,576.4,931.22,572.34,931.22,567.98z"/>
		<path class="st0" d="M931.29,560.32c0-3.82,0-6.84,0-10.1C935.05,552.45,935.17,556.3,931.29,560.32z"/>
	</g>
</g>
</svg>
