<?xml version="1.0" encoding="UTF-8"?>
<!DOCTYPE svg PUBLIC "-//W3C//DTD SVG 1.1//EN" "http://www.w3.org/Graphics/SVG/1.1/DTD/svg11.dtd">
<svg xmlns="http://www.w3.org/2000/svg" version="1.1" width="229px" height="267px" style="shape-rendering:geometricPrecision; text-rendering:geometricPrecision; image-rendering:optimizeQuality; fill-rule:evenodd; clip-rule:evenodd" xmlns:xlink="http://www.w3.org/1999/xlink">
<g><path style="opacity:0.281" fill="#dcf1a7" d="M 2.5,1.5 C 76.9989,0.334451 151.666,0.167784 226.5,1C 227.801,2.61552 227.801,4.11552 226.5,5.5C 226.737,4.20895 226.404,3.20895 225.5,2.5C 151.335,1.50075 77.0019,1.16742 2.5,1.5 Z"/></g>
<g><path style="opacity:1" fill="#bdf034" d="M 2.5,1.5 C 77.0019,1.16742 151.335,1.50075 225.5,2.5C 225.167,2.5 224.833,2.5 224.5,2.5C 150.5,2.5 76.5,2.5 2.5,2.5C 2.5,83.8333 2.5,165.167 2.5,246.5C 2.16667,246.5 1.83333,246.5 1.5,246.5C 1.36145,167.915 1.02812,89.4148 0.5,11C 0.515157,7.42418 1.18182,4.25751 2.5,1.5 Z"/></g>
<g><path style="opacity:1" fill="#a2f604" d="M 224.5,2.5 C 224.389,88.7348 224.056,175.068 223.5,261.5C 218.833,261.5 214.167,261.5 209.5,261.5C 209.5,180.167 209.5,98.8333 209.5,17.5C 145.5,17.5 81.5,17.5 17.5,17.5C 17.1674,93.3352 17.5007,169.002 18.5,244.5C 19.1667,244.833 19.8333,245.167 20.5,245.5C 69.1667,246.833 117.833,246.833 166.5,245.5C 169.388,246.01 171.721,245.344 173.5,243.5C 173.667,226.163 173.5,208.83 173,191.5C 172.34,189.676 171.173,188.343 169.5,187.5C 168.504,187.414 167.671,187.748 167,188.5C 166.5,203.83 166.333,219.163 166.5,234.5C 159.513,235.793 152.513,235.793 145.5,234.5C 145.333,201.165 145.5,167.832 146,134.5C 146.717,133.956 147.217,133.289 147.5,132.5C 158.829,129.436 170.496,128.103 182.5,128.5C 184.972,129.909 187.305,131.576 189.5,133.5C 190.906,133.973 191.573,134.973 191.5,136.5C 191.41,139.152 192.076,141.485 193.5,143.5C 194.631,151.087 194.798,158.754 194,166.5C 193.434,168.723 192.6,170.723 191.5,172.5C 187.952,172.095 184.619,172.595 181.5,174C 183.099,175.786 183.933,177.953 184,180.5C 188.096,182.762 190.929,186.096 192.5,190.5C 192.648,213.443 192.315,236.777 191.5,260.5C 128.504,261.5 65.5035,261.833 2.5,261.5C 2.5,256.5 2.5,251.5 2.5,246.5C 2.5,165.167 2.5,83.8333 2.5,2.5C 76.5,2.5 150.5,2.5 224.5,2.5 Z"/></g>
<g><path style="opacity:1" fill="#b2f130" d="M 224.5,2.5 C 224.833,2.5 225.167,2.5 225.5,2.5C 225.5,89.1667 225.5,175.833 225.5,262.5C 220,263.811 214.5,263.811 209,262.5C 208.5,243.836 208.333,225.17 208.5,206.5C 207.727,147.153 207.727,87.8198 208.5,28.5C 208.784,25.2234 208.451,22.0567 207.5,19C 145.167,18.3333 82.8333,18.3333 20.5,19C 19.944,19.3826 19.6107,19.8826 19.5,20.5C 18.5008,94.9981 18.1674,169.665 18.5,244.5C 17.5007,169.002 17.1674,93.3352 17.5,17.5C 81.5,17.5 145.5,17.5 209.5,17.5C 209.5,98.8333 209.5,180.167 209.5,261.5C 214.167,261.5 218.833,261.5 223.5,261.5C 224.056,175.068 224.389,88.7348 224.5,2.5 Z"/></g>
<g><path style="opacity:1" fill="#a7f40d" d="M 134.5,103.5 C 134.5,104.167 134.167,104.5 133.5,104.5C 123.05,105.789 112.717,107.623 102.5,110C 98.7446,110.755 95.0779,110.589 91.5,109.5C 91.4809,107.94 91.1476,106.44 90.5,105C 90.7483,103.251 91.7483,102.418 93.5,102.5C 96.7814,102.58 99.7814,101.913 102.5,100.5C 108.835,99.2254 115.168,98.2254 121.5,97.5C 125.881,97.6282 130.215,97.2949 134.5,96.5C 134.5,98.8333 134.5,101.167 134.5,103.5 Z"/></g>
<g><path style="opacity:0.686" fill="#d2f082" d="M 102.5,100.5 C 99.7814,101.913 96.7814,102.58 93.5,102.5C 96.2186,101.087 99.2186,100.42 102.5,100.5 Z"/></g>
<g><path style="opacity:1" fill="#cff079" d="M 134.5,103.5 C 134.5,101.167 134.5,98.8333 134.5,96.5C 130.215,97.2949 125.881,97.6282 121.5,97.5C 125.943,96.1985 130.609,95.5319 135.5,95.5C 135.806,98.3854 135.473,101.052 134.5,103.5 Z"/></g>
<g><path style="opacity:1" fill="#d7ee9c" d="M 118.5,87.5 C 119.783,90.3654 119.783,93.3654 118.5,96.5C 119.325,97.3857 120.325,97.719 121.5,97.5C 115.168,98.2254 108.835,99.2254 102.5,100.5C 103.952,99.6981 105.618,99.1981 107.5,99C 108.171,98.0138 108.171,96.8471 107.5,95.5C 107.833,95.5 108.167,95.5 108.5,95.5C 116.214,98.371 119.547,95.7044 118.5,87.5 Z"/></g>
<g><path style="opacity:1" fill="#aaf520" d="M 118.5,64.5 C 119.229,72.125 119.229,79.7917 118.5,87.5C 119.547,95.7044 116.214,98.371 108.5,95.5C 108.334,85.1613 108.5,74.828 109,64.5C 112.123,61.9651 115.29,61.9651 118.5,64.5 Z"/></g>
<g><path style="opacity:0.423" fill="#d3f084" d="M 94.5,61.5 C 103.167,61.5 111.833,61.5 120.5,61.5C 119.449,62.2223 118.782,63.2223 118.5,64.5C 115.29,61.9651 112.123,61.9651 109,64.5C 108.5,74.828 108.334,85.1613 108.5,95.5C 108.167,95.5 107.833,95.5 107.5,95.5C 107.421,84.6795 107.421,73.6795 107.5,62.5C 102.968,62.8182 98.6344,62.4849 94.5,61.5 Z"/></g>
<g><path style="opacity:0.638" fill="#756d6d" d="M 186.5,45.5 C 185.081,46.4511 183.415,46.7845 181.5,46.5C 181.831,70.3392 181.498,94.0059 180.5,117.5C 180.5,93.5 180.5,69.5 180.5,45.5C 182.5,45.5 184.5,45.5 186.5,45.5 Z"/></g>
<g><path style="opacity:1" fill="#c3ef4e" d="M 100.5,31.5 C 109.568,30.1717 118.735,30.1717 128,31.5C 128.333,34.5 128.667,37.5 129,40.5C 130,41.1667 131,41.8333 132,42.5C 132.333,45.5 132.667,48.5 133,51.5C 135.415,54.0316 136.081,57.0316 135,60.5C 130.309,62.7293 125.475,63.0626 120.5,61.5C 111.833,61.5 103.167,61.5 94.5,61.5C 93.8333,61.5 93.1667,61.5 92.5,61.5C 92.5,61.1667 92.5,60.8333 92.5,60.5C 106.189,60.7184 119.855,60.385 133.5,59.5C 133.5,57.5 133.5,55.5 133.5,53.5C 120.537,52.5566 107.537,52.2233 94.5,52.5C 94.5,51.5 94.5,50.5 94.5,49.5C 94.5,47.5 94.5,45.5 94.5,43.5C 94.8333,43.5 95.1667,43.5 95.5,43.5C 95.5,45.8333 95.5,48.1667 95.5,50.5C 107.19,50.6946 118.856,50.3612 130.5,49.5C 130.5,47.1667 130.5,44.8333 130.5,42.5C 121.124,41.5091 111.791,41.1758 102.5,41.5C 110.807,40.5021 119.14,40.1688 127.5,40.5C 127.5,37.8333 127.5,35.1667 127.5,32.5C 118.485,32.4991 109.485,32.1658 100.5,31.5 Z"/></g>
<g><path style="opacity:0.494" fill="#d7f094" d="M 94.5,49.5 C 94.5,50.5 94.5,51.5 94.5,52.5C 93.8826,52.6107 93.3826,52.944 93,53.5C 92.5034,55.8098 92.3367,58.1432 92.5,60.5C 92.5,60.8333 92.5,61.1667 92.5,61.5C 90.7673,57.0898 91.434,53.0898 94.5,49.5 Z"/></g>
<g><path style="opacity:1" fill="#a3f500" d="M 94.5,52.5 C 107.537,52.2233 120.537,52.5566 133.5,53.5C 133.5,55.5 133.5,57.5 133.5,59.5C 119.855,60.385 106.189,60.7184 92.5,60.5C 92.3367,58.1432 92.5034,55.8098 93,53.5C 93.3826,52.944 93.8826,52.6107 94.5,52.5 Z"/></g>
<g><path style="opacity:1" fill="#a5f402" d="M 100.5,31.5 C 109.485,32.1658 118.485,32.4991 127.5,32.5C 127.5,35.1667 127.5,37.8333 127.5,40.5C 119.14,40.1688 110.807,40.5021 102.5,41.5C 111.791,41.1758 121.124,41.5091 130.5,42.5C 130.5,44.8333 130.5,47.1667 130.5,49.5C 118.856,50.3612 107.19,50.6946 95.5,50.5C 95.5,48.1667 95.5,45.8333 95.5,43.5C 98.0812,40.4163 99.0812,36.7496 98.5,32.5C 98.8417,31.6618 99.5084,31.3284 100.5,31.5 Z"/></g>
<g><path style="opacity:0.275" fill="#daf09f" d="M 98.5,32.5 C 99.0812,36.7496 98.0812,40.4163 95.5,43.5C 95.1667,43.5 94.8333,43.5 94.5,43.5C 96.7372,40.1293 98.0706,36.4626 98.5,32.5 Z"/></g>
<g><path style="opacity:1" fill="#0c0b0b" d="M 186.5,45.5 C 184.5,45.5 182.5,45.5 180.5,45.5C 180.5,69.5 180.5,93.5 180.5,117.5C 172.92,119.152 165.254,120.486 157.5,121.5C 157.5,96.8333 157.5,72.1667 157.5,47.5C 152.833,47.5 148.167,47.5 143.5,47.5C 143.193,41.9066 143.527,36.4066 144.5,31C 161.167,30.3333 177.833,30.3333 194.5,31C 195.469,35.7367 195.803,40.57 195.5,45.5C 192.5,45.5 189.5,45.5 186.5,45.5 Z"/></g>
<g><path style="opacity:1" fill="#090808" d="M 33.5,30.5 C 46.7461,30.1773 59.9128,30.5106 73,31.5C 73.6667,37.8333 73.6667,44.1667 73,50.5C 67.8651,51.1898 62.6984,51.8565 57.5,52.5C 56.5037,58.7985 56.1703,65.1318 56.5,71.5C 61.5,71.5 66.5,71.5 71.5,71.5C 71.5,78.1667 71.5,84.8333 71.5,91.5C 66.3568,91.618 61.5235,92.618 57,94.5C 56.5001,108.829 56.3334,123.163 56.5,137.5C 48.8476,138.609 41.181,139.609 33.5,140.5C 33.5,103.833 33.5,67.1667 33.5,30.5 Z"/></g>
<g><path style="opacity:0.514" fill="#d0f179" d="M 208.5,28.5 C 207.795,25.7719 207.128,22.9386 206.5,20C 144.236,19.4537 81.9027,19.6204 19.5,20.5C 19.6107,19.8826 19.944,19.3826 20.5,19C 82.8333,18.3333 145.167,18.3333 207.5,19C 208.451,22.0567 208.784,25.2234 208.5,28.5 Z"/></g>
<g><path style="opacity:1" fill="#c7ed62" d="M 133.5,104.5 C 132.897,108.273 132.23,111.939 131.5,115.5C 131.5,112.833 131.5,110.167 131.5,107.5C 122.766,108.152 114.099,109.319 105.5,111C 101.511,111.537 97.8439,112.704 94.5,114.5C 93.1103,113.101 92.1103,111.434 91.5,109.5C 95.0779,110.589 98.7446,110.755 102.5,110C 112.717,107.623 123.05,105.789 133.5,104.5 Z"/></g>
<g><path style="opacity:1" fill="#a7f411" d="M 131.5,115.5 C 131.5,116.167 131.167,116.5 130.5,116.5C 119.325,117.58 108.325,119.246 97.5,121.5C 96.8333,121.5 96.1667,121.5 95.5,121.5C 93.4094,119.458 93.0761,117.125 94.5,114.5C 97.8439,112.704 101.511,111.537 105.5,111C 114.099,109.319 122.766,108.152 131.5,107.5C 131.5,110.167 131.5,112.833 131.5,115.5 Z"/></g>
<g><path style="opacity:1" fill="#c4ed59" d="M 130.5,116.5 C 129.019,119.728 128.019,123.061 127.5,126.5C 127.5,123.833 127.5,121.167 127.5,118.5C 117.776,120.046 108.11,121.712 98.5,123.5C 98.1667,122.833 97.8333,122.167 97.5,121.5C 108.325,119.246 119.325,117.58 130.5,116.5 Z"/></g>
<g><path style="opacity:1" fill="#aaf420" d="M 127.5,126.5 C 125.447,126.402 123.78,127.069 122.5,128.5C 114.433,130.631 106.433,131.631 98.5,131.5C 98.5,128.833 98.5,126.167 98.5,123.5C 108.11,121.712 117.776,120.046 127.5,118.5C 127.5,121.167 127.5,123.833 127.5,126.5 Z"/></g>
<g><path style="opacity:0.173" fill="#e0f4a9" d="M 127.5,126.5 C 126.22,127.931 124.553,128.598 122.5,128.5C 123.78,127.069 125.447,126.402 127.5,126.5 Z"/></g>
<g><path style="opacity:0.247" fill="#def0b0" d="M 95.5,121.5 C 96.1667,121.5 96.8333,121.5 97.5,121.5C 97.8333,122.167 98.1667,122.833 98.5,123.5C 98.5,126.167 98.5,128.833 98.5,131.5C 97.9807,128.061 96.9807,124.728 95.5,121.5 Z"/></g>
<g><path style="opacity:0.314" fill="#dcf2a1" d="M 182.5,128.5 C 186.14,128.475 188.473,130.142 189.5,133.5C 187.305,131.576 184.972,129.909 182.5,128.5 Z"/></g>
<g><path style="opacity:1" fill="#090909" d="M 120.5,234.5 C 120.011,233.005 119.345,231.671 118.5,230.5C 118.495,226.466 118.162,222.466 117.5,218.5C 115.076,218.192 112.743,218.526 110.5,219.5C 109.714,224.477 109.047,229.477 108.5,234.5C 101.167,234.5 93.8333,234.5 86.5,234.5C 89.5967,203.13 93.0967,171.797 97,140.5C 107.644,137.81 118.477,136.143 129.5,135.5C 133.208,168.54 137.208,201.54 141.5,234.5C 134.5,234.5 127.5,234.5 120.5,234.5 Z"/></g>
<g><path style="opacity:0.506" fill="#d5f287" d="M 191.5,136.5 C 192.924,138.515 193.59,140.848 193.5,143.5C 192.076,141.485 191.41,139.152 191.5,136.5 Z"/></g>
<g><path style="opacity:1" fill="#0c0c0c" d="M 72.5,184.5 C 71.6236,184.369 70.9569,184.702 70.5,185.5C 71.325,186.386 72.325,186.719 73.5,186.5C 78.1855,187.687 81.0189,190.687 82,195.5C 83.8834,207.01 83.2167,218.343 80,229.5C 77.806,232.181 74.9727,233.681 71.5,234C 58.258,234.822 45.0914,234.655 32,233.5C 31.3333,205.833 31.3333,178.167 32,150.5C 45.2848,147.222 58.7848,145.722 72.5,146C 77.2335,148.404 80.0668,152.237 81,157.5C 82.0722,165.029 81.4055,172.362 79,179.5C 77.2419,181.765 75.0752,183.432 72.5,184.5 Z"/></g>
<g><path style="opacity:1" fill="#f7fbe8" d="M 168.5,146.5 C 170.911,146.137 172.411,147.137 173,149.5C 173.667,155.5 173.667,161.5 173,167.5C 171.276,170.73 169.276,171.064 167,168.5C 166.333,161.833 166.333,155.167 167,148.5C 167.717,147.956 168.217,147.289 168.5,146.5 Z"/></g>
<g><path style="opacity:1" fill="#eeeded" d="M 53.5,159.5 C 60.0201,158.811 62.6867,161.811 61.5,168.5C 61.4389,171.903 60.9389,175.236 60,178.5C 58.103,180.016 55.9363,180.683 53.5,180.5C 53.5,173.5 53.5,166.5 53.5,159.5 Z"/></g>
<g><path style="opacity:1" fill="#ecebeb" d="M 116.5,200.5 C 114.5,200.5 112.5,200.5 110.5,200.5C 110.5,197.167 110.5,193.833 110.5,190.5C 110.774,180.096 111.774,169.763 113.5,159.5C 114.086,159.709 114.586,160.043 115,160.5C 115.142,172.72 115.975,184.887 117.5,197C 117.486,198.385 117.152,199.551 116.5,200.5 Z"/></g>
<g><path style="opacity:0.503" fill="#cdf16f" d="M 225.5,2.5 C 226.404,3.20895 226.737,4.20895 226.5,5.5C 226.512,91.1513 226.512,176.818 226.5,262.5C 226.167,262.5 225.833,262.5 225.5,262.5C 225.5,175.833 225.5,89.1667 225.5,2.5 Z"/></g>
<g><path style="opacity:0.204" fill="#e5f4ba" d="M 147.5,132.5 C 147.217,133.289 146.717,133.956 146,134.5C 145.5,167.832 145.333,201.165 145.5,234.5C 144.336,201.002 144.169,167.336 145,133.5C 145.671,132.748 146.504,132.414 147.5,132.5 Z"/></g>
<g><path style="opacity:1" fill="#baf245" d="M 191.5,172.5 C 190.611,174.736 189.278,176.736 187.5,178.5C 190.529,181.226 192.529,184.559 193.5,188.5C 193.5,189.167 193.5,189.833 193.5,190.5C 193.167,190.5 192.833,190.5 192.5,190.5C 190.929,186.096 188.096,182.762 184,180.5C 183.933,177.953 183.099,175.786 181.5,174C 184.619,172.595 187.952,172.095 191.5,172.5 Z"/></g>
<g><path style="opacity:0.424" fill="#9e9897" d="M 72.5,184.5 C 72.8333,185.167 73.1667,185.833 73.5,186.5C 72.325,186.719 71.325,186.386 70.5,185.5C 70.9569,184.702 71.6236,184.369 72.5,184.5 Z"/></g>
<g><path style="opacity:1" fill="#f9f9f9" d="M 53.5,195.5 C 55.7925,195.244 57.9592,195.577 60,196.5C 60.6667,204.167 60.6667,211.833 60,219.5C 58.2111,221.229 56.0444,221.896 53.5,221.5C 53.5,212.833 53.5,204.167 53.5,195.5 Z"/></g>
<g><path style="opacity:1" fill="#aba6a5" d="M 110.5,190.5 C 110.5,193.833 110.5,197.167 110.5,200.5C 112.5,200.5 114.5,200.5 116.5,200.5C 114.393,201.468 112.059,201.802 109.5,201.5C 109.185,197.629 109.518,193.962 110.5,190.5 Z"/></g>
<g><path style="opacity:0.384" fill="#d6f091" d="M 19.5,20.5 C 19.1728,95.5412 19.5062,170.541 20.5,245.5C 19.8333,245.167 19.1667,244.833 18.5,244.5C 18.1674,169.665 18.5008,94.9981 19.5,20.5 Z"/></g>
<g><path style="opacity:0.378" fill="#d5f08b" d="M 169.5,187.5 C 169.217,188.289 168.717,188.956 168,189.5C 167.831,204.672 167.331,219.672 166.5,234.5C 166.333,219.163 166.5,203.83 167,188.5C 167.671,187.748 168.504,187.414 169.5,187.5 Z"/></g>
<g><path style="opacity:0.557" fill="#828080" d="M 118.5,230.5 C 119.345,231.671 120.011,233.005 120.5,234.5C 118.824,233.817 118.157,232.483 118.5,230.5 Z"/></g>
<g><path style="opacity:0.251" fill="#e1efb7" d="M 173.5,243.5 C 171.721,245.344 169.388,246.01 166.5,245.5C 166.167,245.5 165.833,245.5 165.5,245.5C 168.053,244.745 170.72,244.078 173.5,243.5 Z"/></g>
<g><path style="opacity:0.651" fill="#cbf065" d="M 165.5,245.5 C 165.833,245.5 166.167,245.5 166.5,245.5C 117.833,246.833 69.1667,246.833 20.5,245.5C 68.7404,244.418 117.074,244.418 165.5,245.5 Z"/></g>
<g><path style="opacity:0.335" fill="#def1ac" d="M 1.5,246.5 C 1.21427,252.259 1.5476,257.925 2.5,263.5C 1.18578,261.085 0.519112,258.252 0.5,255C 0.502244,251.979 0.835578,249.146 1.5,246.5 Z"/></g>
<g><path style="opacity:0.749" fill="#ccef6c" d="M 193.5,188.5 C 194.272,211.631 194.939,234.798 195.5,258C 195.301,260.448 194.301,262.281 192.5,263.5C 193.49,239.241 193.823,214.908 193.5,190.5C 193.5,189.833 193.5,189.167 193.5,188.5 Z"/></g>
<g><path style="opacity:1" fill="#baf145" d="M 192.5,190.5 C 192.833,190.5 193.167,190.5 193.5,190.5C 193.823,214.908 193.49,239.241 192.5,263.5C 129.264,264.831 65.931,264.831 2.5,263.5C 1.5476,257.925 1.21427,252.259 1.5,246.5C 1.83333,246.5 2.16667,246.5 2.5,246.5C 2.5,251.5 2.5,256.5 2.5,261.5C 65.5035,261.833 128.504,261.5 191.5,260.5C 192.315,236.777 192.648,213.443 192.5,190.5 Z"/></g>
<g><path style="opacity:0.28" fill="#ddefb2" d="M 208.5,206.5 C 208.333,225.17 208.5,243.836 209,262.5C 214.5,263.811 220,263.811 225.5,262.5C 225.833,262.5 226.167,262.5 226.5,262.5C 226.389,263.117 226.056,263.617 225.5,264C 219.584,264.807 213.75,264.641 208,263.5C 207.171,244.329 207.338,225.329 208.5,206.5 Z"/></g>
</svg>
